<svg width="62" height="19" viewBox="0 0 62 19" fill="none" xmlns="http://www.w3.org/2000/svg">
<path d="M10.0898 13.4648C10.0898 13.1992 10.0508 12.9609 9.97266 12.75C9.89453 12.5312 9.75 12.3281 9.53906 12.1406C9.32812 11.9531 9.02344 11.7656 8.625 11.5781C8.23438 11.3828 7.71875 11.1797 7.07812 10.9688C6.32812 10.7188 5.60547 10.4375 4.91016 10.125C4.21484 9.80469 3.59375 9.43359 3.04688 9.01172C2.5 8.58203 2.06641 8.08203 1.74609 7.51172C1.42578 6.93359 1.26562 6.26172 1.26562 5.49609C1.26562 4.76172 1.42969 4.10156 1.75781 3.51562C2.08594 2.92187 2.54297 2.41797 3.12891 2.00391C3.72266 1.58203 4.41797 1.26172 5.21484 1.04297C6.01172 0.816406 6.88281 0.703125 7.82812 0.703125C9.07812 0.703125 10.1797 0.921875 11.1328 1.35938C12.0938 1.78906 12.8438 2.40234 13.3828 3.19922C13.9297 3.98828 14.2031 4.92188 14.2031 6H10.1133C10.1133 5.57031 10.0234 5.19141 9.84375 4.86328C9.67188 4.53516 9.41016 4.27734 9.05859 4.08984C8.70703 3.90234 8.26562 3.80859 7.73438 3.80859C7.21875 3.80859 6.78516 3.88672 6.43359 4.04297C6.08203 4.19922 5.81641 4.41016 5.63672 4.67578C5.45703 4.93359 5.36719 5.21875 5.36719 5.53125C5.36719 5.78906 5.4375 6.02344 5.57812 6.23438C5.72656 6.4375 5.93359 6.62891 6.19922 6.80859C6.47266 6.98828 6.80078 7.16016 7.18359 7.32422C7.57422 7.48828 8.01172 7.64844 8.49609 7.80469C9.40234 8.09375 10.207 8.41797 10.9102 8.77734C11.6211 9.12891 12.2188 9.53125 12.7031 9.98438C13.1953 10.4297 13.5664 10.9375 13.8164 11.5078C14.0742 12.0781 14.2031 12.7227 14.2031 13.4414C14.2031 14.207 14.0547 14.8867 13.7578 15.4805C13.4609 16.0742 13.0352 16.5781 12.4805 16.9922C11.9258 17.3984 11.2617 17.707 10.4883 17.918C9.71484 18.1289 8.85156 18.2344 7.89844 18.2344C7.02344 18.2344 6.16016 18.125 5.30859 17.9062C4.46484 17.6797 3.69922 17.3359 3.01172 16.875C2.32422 16.4062 1.77344 15.8086 1.35938 15.082C0.953125 14.3477 0.75 13.4766 0.75 12.4688H4.875C4.875 12.9688 4.94141 13.3906 5.07422 13.7344C5.20703 14.0781 5.40234 14.3555 5.66016 14.5664C5.91797 14.7695 6.23438 14.918 6.60938 15.0117C6.98438 15.0977 7.41406 15.1406 7.89844 15.1406C8.42188 15.1406 8.84375 15.0664 9.16406 14.918C9.48438 14.7617 9.71875 14.5586 9.86719 14.3086C10.0156 14.0508 10.0898 13.7695 10.0898 13.4648ZM22.8164 5.32031V8.0625H15.1758V5.32031H22.8164ZM16.7812 2.16797H20.7305V13.8633C20.7305 14.1992 20.7695 14.4609 20.8477 14.6484C20.9258 14.8281 21.0586 14.957 21.2461 15.0352C21.4414 15.1055 21.6992 15.1406 22.0195 15.1406C22.2461 15.1406 22.4336 15.1367 22.582 15.1289C22.7305 15.1133 22.8711 15.0938 23.0039 15.0703V17.8945C22.668 18.0039 22.3164 18.0859 21.9492 18.1406C21.582 18.2031 21.1914 18.2344 20.7773 18.2344C19.9336 18.2344 19.2109 18.1016 18.6094 17.8359C18.0156 17.5703 17.5625 17.1523 17.25 16.582C16.9375 16.0117 16.7812 15.2695 16.7812 14.3555V2.16797ZM23.543 11.7891V11.543C23.543 10.6133 23.6758 9.75781 23.9414 8.97656C24.207 8.1875 24.5977 7.50391 25.1133 6.92578C25.6289 6.34766 26.2656 5.89844 27.0234 5.57812C27.7812 5.25 28.6562 5.08594 29.6484 5.08594C30.6484 5.08594 31.5273 5.25 32.2852 5.57812C33.0508 5.89844 33.6914 6.34766 34.207 6.92578C34.7227 7.50391 35.1133 8.1875 35.3789 8.97656C35.6445 9.75781 35.7773 10.6133 35.7773 11.543V11.7891C35.7773 12.7109 35.6445 13.5664 35.3789 14.3555C35.1133 15.1367 34.7227 15.8203 34.207 16.4062C33.6914 16.9844 33.0547 17.4336 32.2969 17.7539C31.5391 18.0742 30.6641 18.2344 29.6719 18.2344C28.6797 18.2344 27.8008 18.0742 27.0352 17.7539C26.2695 17.4336 25.6289 16.9844 25.1133 16.4062C24.5977 15.8203 24.207 15.1367 23.9414 14.3555C23.6758 13.5664 23.543 12.7109 23.543 11.7891ZM27.4922 11.543V11.7891C27.4922 12.2656 27.5273 12.7109 27.5977 13.125C27.668 13.5391 27.7852 13.9023 27.9492 14.2148C28.1133 14.5195 28.3359 14.7578 28.6172 14.9297C28.8984 15.1016 29.25 15.1875 29.6719 15.1875C30.0859 15.1875 30.4297 15.1016 30.7031 14.9297C30.9844 14.7578 31.207 14.5195 31.3711 14.2148C31.5352 13.9023 31.6523 13.5391 31.7227 13.125C31.793 12.7109 31.8281 12.2656 31.8281 11.7891V11.543C31.8281 11.082 31.793 10.6484 31.7227 10.2422C31.6523 9.82812 31.5352 9.46484 31.3711 9.15234C31.207 8.83203 30.9844 8.58203 30.7031 8.40234C30.4219 8.22266 30.0703 8.13281 29.6484 8.13281C29.2344 8.13281 28.8867 8.22266 28.6055 8.40234C28.332 8.58203 28.1133 8.83203 27.9492 9.15234C27.7852 9.46484 27.668 9.82812 27.5977 10.2422C27.5273 10.6484 27.4922 11.082 27.4922 11.543ZM41.918 15.293L44.4141 5.32031H48.5742L44.4258 18H41.9648L41.918 15.293ZM40.4414 5.32031L42.9023 15.293L42.8789 18H40.4062L36.2695 5.32031H40.4414ZM55.7227 18.2344C54.6914 18.2344 53.7695 18.0742 52.957 17.7539C52.1445 17.4258 51.457 16.9766 50.8945 16.4062C50.3398 15.8359 49.9141 15.1797 49.6172 14.4375C49.3281 13.6953 49.1836 12.9102 49.1836 12.082V11.6367C49.1836 10.707 49.3125 9.84766 49.5703 9.05859C49.8281 8.26172 50.2109 7.56641 50.7188 6.97266C51.2266 6.37891 51.8633 5.91797 52.6289 5.58984C53.3945 5.25391 54.2852 5.08594 55.3008 5.08594C56.1992 5.08594 57.0039 5.23047 57.7148 5.51953C58.4258 5.80859 59.0273 6.22266 59.5195 6.76172C60.0195 7.30078 60.3984 7.95312 60.6562 8.71875C60.9219 9.48438 61.0547 10.3438 61.0547 11.2969V12.9023H50.6953V10.4297H57.1992V10.125C57.207 9.70312 57.1328 9.34375 56.9766 9.04688C56.8281 8.75 56.6094 8.52344 56.3203 8.36719C56.0312 8.21094 55.6797 8.13281 55.2656 8.13281C54.8359 8.13281 54.4805 8.22656 54.1992 8.41406C53.9258 8.60156 53.7109 8.85938 53.5547 9.1875C53.4062 9.50781 53.3008 9.87891 53.2383 10.3008C53.1758 10.7227 53.1445 11.168 53.1445 11.6367V12.082C53.1445 12.5508 53.207 12.9766 53.332 13.3594C53.4648 13.7422 53.6523 14.0703 53.8945 14.3438C54.1445 14.6094 54.4414 14.8164 54.7852 14.9648C55.1367 15.1133 55.5352 15.1875 55.9805 15.1875C56.5195 15.1875 57.0508 15.0859 57.5742 14.8828C58.0977 14.6797 58.5469 14.3438 58.9219 13.875L60.7148 16.0078C60.457 16.375 60.0898 16.7305 59.6133 17.0742C59.1445 17.418 58.582 17.6992 57.9258 17.918C57.2695 18.1289 56.5352 18.2344 55.7227 18.2344Z" fill="#F54242"/>
</svg>
