<svg width="256" height="256" viewBox="0 0 256 256" fill="none" xmlns="http://www.w3.org/2000/svg">
<path d="M256 236C256 247.046 247.046 256 236 256H20C8.954 256 0 247.046 0 236V20C0 8.954 8.954 0 20 0H236C247.046 0 256 8.954 256 20V236Z" fill="#FFE812"/>
<path d="M128 36C70.562 36 24 72.713 24 118C24 147.279 43.466 172.97 72.748 187.477C71.155 192.971 62.511 222.821 62.167 225.166C62.167 225.166 61.96 226.928 63.101 227.6C64.242 228.272 65.584 227.75 65.584 227.75C68.856 227.293 103.527 202.939 109.528 198.71C115.523 199.559 121.696 200 128 200C185.438 200 232 163.288 232 118C232 72.713 185.438 36 128 36Z" fill="black"/>
<path d="M70.5 146.625C67.191 146.625 64.5 144.055 64.5 140.895V105.25H55.138C51.891 105.25 49.25 102.614 49.25 99.375C49.25 96.136 51.892 93.5 55.138 93.5H85.862C89.109 93.5 91.75 96.136 91.75 99.375C91.75 102.614 89.108 105.25 85.862 105.25H76.5V140.895C76.5 144.055 73.809 146.625 70.5 146.625ZM123.112 146.547C120.61 146.547 118.696 145.531 118.119 143.897L115.148 136.119L96.852 136.118L93.879 143.901C93.304 145.532 91.391 146.547 88.889 146.547C87.5729 146.548 86.272 146.266 85.075 145.719C83.421 144.956 81.831 142.858 83.653 137.199L98.005 99.423C99.016 96.55 102.087 93.59 105.995 93.501C109.914 93.589 112.985 96.55 113.998 99.429L128.344 137.188C130.17 142.86 128.58 144.959 126.926 145.72C125.729 146.266 124.428 146.548 123.112 146.547C123.111 146.547 123.112 146.547 123.112 146.547V146.547ZM111.993 125.491L106 108.466L100.007 125.491H111.993V125.491ZM138 145.75C134.829 145.75 132.25 143.282 132.25 140.25V99.5C132.25 96.191 134.998 93.5 138.375 93.5C141.752 93.5 144.5 96.191 144.5 99.5V134.75H157.25C160.421 134.75 163 137.218 163 140.25C163 143.282 160.421 145.75 157.25 145.75H138ZM171.334 146.547C168.025 146.547 165.334 143.856 165.334 140.547V99.5C165.334 96.191 168.025 93.5 171.334 93.5C174.643 93.5 177.334 96.191 177.334 99.5V112.396L194.074 95.656C194.935 94.795 196.118 94.321 197.402 94.321C198.9 94.321 200.404 94.967 201.531 96.093C202.582 97.143 203.209 98.494 203.295 99.897C203.382 101.312 202.911 102.609 201.971 103.55L188.298 117.221L203.067 136.787C203.544 137.415 203.891 138.131 204.089 138.894C204.287 139.657 204.331 140.452 204.219 141.232C204.112 142.013 203.851 142.765 203.452 143.444C203.052 144.123 202.522 144.716 201.891 145.189C200.853 145.978 199.585 146.403 198.282 146.4C197.352 146.404 196.435 146.191 195.602 145.777C194.77 145.363 194.046 144.759 193.489 144.015L179.418 125.371L177.336 127.453V140.544C177.334 142.135 176.701 143.661 175.576 144.786C174.451 145.912 172.925 146.545 171.334 146.547V146.547Z" fill="#FFE812"/>
</svg>
